<svg width="182" height="57" viewBox="0 0 182 57" fill="none" xmlns="http://www.w3.org/2000/svg">
<mask id="mask0_566_980" style="mask-type:luminance" maskUnits="userSpaceOnUse" x="0" y="0" width="56" height="56">
<path d="M48.7962 0.015625H6.68548C2.9932 0.015625 0 3.00881 0 6.70109V48.8118C0 52.5041 2.9932 55.4973 6.68548 55.4973H48.7962C52.4885 55.4973 55.4817 52.5041 55.4817 48.8118V6.70109C55.4817 3.00881 52.4885 0.015625 48.7962 0.015625Z" fill="white"/>
</mask>
<g mask="url(#mask0_566_980)">
<path d="M55.4817 55.2422H0V55.499H55.4817V55.2422Z" fill="#FEFEFE"/>
<path d="M55.4817 54.5312H0V55.2411H55.4817V54.5312Z" fill="#FDFDFD"/>
<path d="M55.4817 53.8203H0V54.5301H55.4817V53.8203Z" fill="#FCFCFC"/>
<path d="M55.4817 53.1094H0V53.8192H55.4817V53.1094Z" fill="#FBFBFB"/>
<path d="M55.4817 52.3984H0V53.1082H55.4817V52.3984Z" fill="#FAFAFA"/>
<path d="M55.4817 51.6875H0V52.3973H55.4817V51.6875Z" fill="#F9F9F9"/>
<path d="M55.4817 50.9766H0V51.6864H55.4817V50.9766Z" fill="#F8F8F8"/>
<path d="M55.4817 50.2656H0V50.9754H55.4817V50.2656Z" fill="#F7F7F7"/>
<path d="M55.4817 49.5547H0V50.2645H55.4817V49.5547Z" fill="#F6F6F6"/>
<path d="M55.4817 48.8438H0V49.5536H55.4817V48.8438Z" fill="#F5F5F5"/>
<path d="M55.4817 48.1367H0V48.8465H55.4817V48.1367Z" fill="#F4F4F4"/>
<path d="M55.4817 47.4219H0V48.1317H55.4817V47.4219Z" fill="#F3F3F3"/>
<path d="M55.4817 46.7148H0V47.4246H55.4817V46.7148Z" fill="#F2F2F2"/>
<path d="M55.4817 46.0039H0V46.7137H55.4817V46.0039Z" fill="#F1F1F1"/>
<path d="M55.4817 45.293H0V46.0028H55.4817V45.293Z" fill="#F0F0F0"/>
<path d="M55.4817 44.582H0V45.2918H55.4817V44.582Z" fill="#EFEFEF"/>
<path d="M55.4817 43.8711H0V44.5809H55.4817V43.8711Z" fill="#EEEEEE"/>
<path d="M55.4817 43.1602H0V43.87H55.4817V43.1602Z" fill="#EDEDED"/>
<path d="M55.4817 42.4492H0V43.159H55.4817V42.4492Z" fill="#ECECEC"/>
<path d="M55.4817 41.7383H0V42.4481H55.4817V41.7383Z" fill="#EBEBEB"/>
<path d="M55.4817 41.0273H0V41.7371H55.4817V41.0273Z" fill="#EAEAEA"/>
<path d="M55.4817 40.3164H0V41.0262H55.4817V40.3164Z" fill="#E9E9E9"/>
<path d="M55.4817 39.6055H0V40.3153H55.4817V39.6055Z" fill="#E8E8E8"/>
<path d="M55.4817 38.8945H0V39.6043H55.4817V38.8945Z" fill="#E7E7E7"/>
<path d="M55.4817 38.1836H0V38.8934H55.4817V38.1836Z" fill="#E6E6E6"/>
<path d="M55.4817 37.4766H0V38.1864H55.4817V37.4766Z" fill="#E5E5E5"/>
<path d="M55.4817 36.7656H0V37.4754H55.4817V36.7656Z" fill="#E4E4E4"/>
<path d="M55.4817 36.0547H0V36.7645H55.4817V36.0547Z" fill="#E3E3E3"/>
<path d="M55.4817 35.3438H0V36.0536H55.4817V35.3438Z" fill="#E2E2E2"/>
<path d="M55.4817 34.6328H0V35.3426H55.4817V34.6328Z" fill="#E1E1E1"/>
<path d="M55.4817 33.9219H0V34.6317H55.4817V33.9219Z" fill="#E0E0E0"/>
<path d="M55.4817 33.2109H0V33.9207H55.4817V33.2109Z" fill="#DFDFDF"/>
<path d="M55.4817 32.5H0V33.2098H55.4817V32.5Z" fill="#DEDEDE"/>
<path d="M55.4817 31.7891H0V32.4989H55.4817V31.7891Z" fill="#DDDDDD"/>
<path d="M55.4817 31.0781H0V31.7879H55.4817V31.0781Z" fill="#DCDCDC"/>
<path d="M55.4817 30.3672H0V31.077H55.4817V30.3672Z" fill="#DBDBDB"/>
<path d="M55.4817 29.6562H0V30.3661H55.4817V29.6562Z" fill="#DADADA"/>
<path d="M55.4817 28.9453H0V29.6551H55.4817V28.9453Z" fill="#D8D8D8"/>
<path d="M55.4817 28.2344H0V28.9442H55.4817V28.2344Z" fill="#D7D7D7"/>
<path d="M55.4817 27.5273H0V28.2371H55.4817V27.5273Z" fill="#D6D6D6"/>
<path d="M55.4817 26.8164H0V27.5262H55.4817V26.8164Z" fill="#D5D5D5"/>
<path d="M55.4817 26.1055H0V26.8153H55.4817V26.1055Z" fill="#D4D4D4"/>
<path d="M55.4817 25.3945H0V26.1043H55.4817V25.3945Z" fill="#D3D3D3"/>
<path d="M55.4817 24.6836H0V25.3934H55.4817V24.6836Z" fill="#D2D2D2"/>
<path d="M55.4817 23.9727H0V24.6825H55.4817V23.9727Z" fill="#D1D1D1"/>
<path d="M55.4817 23.2617H0V23.9715H55.4817V23.2617Z" fill="#D0D0D0"/>
<path d="M55.4817 22.5508H0V23.2606H55.4817V22.5508Z" fill="#CFCFCF"/>
<path d="M55.4817 21.8398H0V22.5496H55.4817V21.8398Z" fill="#CECECE"/>
<path d="M55.4817 21.1289H0V21.8387H55.4817V21.1289Z" fill="#CDCDCD"/>
<path d="M55.4817 20.418H0V21.1278H55.4817V20.418Z" fill="#CCCCCC"/>
<path d="M55.4817 19.707H0V20.4168H55.4817V19.707Z" fill="#CBCBCB"/>
<path d="M55.4817 18.9961H0V19.7059H55.4817V18.9961Z" fill="#CACACA"/>
<path d="M55.4817 18.2852H0V18.995H55.4817V18.2852Z" fill="#C9C9C9"/>
<path d="M55.4817 17.5781H0V18.2879H55.4817V17.5781Z" fill="#C8C8C8"/>
<path d="M55.4817 16.8633H0V17.5731H55.4817V16.8633Z" fill="#C7C7C7"/>
<path d="M55.4817 16.1562H0V16.866H55.4817V16.1562Z" fill="#C6C6C6"/>
<path d="M55.4817 15.4453H0V16.1551H55.4817V15.4453Z" fill="#C5C5C5"/>
<path d="M55.4817 14.7344H0V15.4442H55.4817V14.7344Z" fill="#C4C4C4"/>
<path d="M55.4817 14.0234H0V14.7332H55.4817V14.0234Z" fill="#C3C3C3"/>
<path d="M55.4817 13.3125H0V14.0223H55.4817V13.3125Z" fill="#C2C2C2"/>
<path d="M55.4817 12.6016H0V13.3114H55.4817V12.6016Z" fill="#C1C1C1"/>
<path d="M55.4817 11.8906H0V12.6004H55.4817V11.8906Z" fill="#C0C0C0"/>
<path d="M55.4817 11.1797H0V11.8895H55.4817V11.1797Z" fill="#BFBFBF"/>
<path d="M55.4817 10.4688H0V11.1785H55.4817V10.4688Z" fill="#BEBEBE"/>
<path d="M55.4817 9.75781H0V10.4676H55.4817V9.75781Z" fill="#BDBDBD"/>
<path d="M55.4817 9.04688H0V9.75667H55.4817V9.04688Z" fill="#BCBCBC"/>
<path d="M55.4817 8.33594H0V9.04574H55.4817V8.33594Z" fill="#BBBBBB"/>
<path d="M55.4817 7.62891H0V8.33871H55.4817V7.62891Z" fill="#BABABA"/>
<path d="M55.4817 6.91406H0V7.62386H55.4817V6.91406Z" fill="#B9B9B9"/>
<path d="M55.4817 6.20703H0V6.91683H55.4817V6.20703Z" fill="#B8B8B8"/>
<path d="M55.4817 5.49609H0V6.2059H55.4817V5.49609Z" fill="#B7B7B7"/>
<path d="M55.4817 4.78516H0V5.49496H55.4817V4.78516Z" fill="#B6B6B6"/>
<path d="M55.4817 4.07422H0V4.78401H55.4817V4.07422Z" fill="#B5B5B5"/>
<path d="M55.4817 3.36328H0V4.07308H55.4817V3.36328Z" fill="#B4B4B4"/>
<path d="M55.4817 2.65234H0V3.36215H55.4817V2.65234Z" fill="#B3B3B3"/>
<path d="M55.4817 0.015625H0V2.6526H55.4817V0.015625Z" fill="#B3B3B3"/>
</g>
<path d="M21.089 37.1683C21.6168 35.413 22.2396 33.5384 22.9656 31.6274C24.3488 27.9894 25.8958 24.764 27.5823 21.9996C27.2951 21.6174 27.1213 21.1462 27.1132 20.6346C24.4823 20.0704 21.641 19.852 18.6158 19.9814C18.5753 21.0451 17.8291 21.9268 16.8281 22.1675C17.2204 28.4505 19.1294 33.5222 21.0788 37.1683C21.0829 37.1683 21.0869 37.1683 21.089 37.1683Z" fill="url(#paint0_linear_566_980)"/>
<path d="M25.4821 45.8901C24.5135 44.8446 23.3305 43.4371 22.1131 41.6758C21.8684 41.7728 21.6035 41.8275 21.3264 41.8355C21.0656 42.875 20.8492 43.8133 20.6753 44.6181C22.2243 45.2652 23.8421 45.6879 25.4821 45.8901Z" fill="url(#paint1_linear_566_980)"/>
<path d="M40.4754 28.4859C39.6908 27.5516 38.7687 26.6012 37.6888 25.6932C35.8142 24.1138 33.703 22.858 31.3795 21.9258C30.9568 22.5345 30.2531 22.9349 29.4543 22.9349C29.2278 22.9349 29.0115 22.9005 28.8032 22.8418C26.9427 25.8974 25.4726 29.1754 24.3502 32.1259C23.6425 33.9863 23.0338 35.8164 22.5161 37.5292C22.9954 37.8366 23.3553 38.3118 23.511 38.874C28.6455 38.6394 33.2864 36.9954 37.3915 33.9418C38.344 33.234 39.2014 32.4899 39.9759 31.7457C39.6949 31.3594 39.525 30.8842 39.525 30.3686C39.525 29.5981 39.8991 28.9166 40.4754 28.4879V28.4859Z" fill="url(#paint2_linear_566_980)"/>
<path d="M31.3257 19.1886C31.6007 19.5547 31.7706 20.0036 31.7908 20.493C34.3368 21.5041 36.6482 22.8812 38.6967 24.6183C40.0132 25.7346 41.1072 26.9014 42.0111 28.0298C42.3691 28.052 42.7067 28.1511 43.002 28.3169C44.6986 26.0601 45.4853 24.3271 45.4995 24.2968L45.7259 24.3979C45.0566 20.8024 43.3033 17.3727 40.4722 14.6346C39.8696 14.0522 39.2387 13.5204 38.5835 13.0391C35.7867 14.3899 33.3782 16.5921 31.3277 19.1907L31.3257 19.1886Z" fill="url(#paint3_linear_566_980)"/>
<path d="M19.7196 37.734C17.8571 34.2234 16.5629 30.4924 15.8713 26.632C15.6003 25.1194 15.4244 23.5845 15.3374 22.0334C14.6721 21.7402 14.1686 21.1477 14.0007 20.4258C12.929 20.5855 11.839 20.7817 10.7308 21.0183C8.6277 26.3185 9.10899 32.3933 12.1464 37.3255C14.5265 38.0312 16.8258 38.5004 19.0462 38.7309C19.1817 38.3406 19.4162 37.9989 19.7196 37.734Z" fill="url(#paint4_linear_566_980)"/>
<path d="M44.4112 35.2315C44.4031 35.2072 44.0371 34.0303 43.115 32.3438C42.753 32.5723 42.3263 32.7077 41.8653 32.7077C41.6327 32.7077 41.4082 32.6734 41.1959 32.6087C40.3304 33.456 39.3557 34.3053 38.2657 35.1182C34.7693 37.7208 30.8178 39.373 26.5206 40.0282C25.5136 40.1819 24.4883 40.281 23.4428 40.3255C23.3902 40.467 23.3235 40.6025 23.2446 40.7299C24.9696 43.2395 26.642 45.0271 27.6733 46.0322C32.4721 46.0463 37.2707 44.1879 40.8743 40.4751C42.4031 38.8998 43.5902 37.1202 44.4395 35.2274L44.4092 35.2355L44.4112 35.2315Z" fill="url(#paint5_linear_566_980)"/>
<path d="M44.0146 29.4302C44.14 29.7174 44.2108 30.0328 44.2108 30.3665C44.2108 30.6152 44.1724 30.8518 44.0996 31.0763C44.5748 31.8933 44.9348 32.6253 45.2017 33.2198C45.8832 31.0379 46.1461 28.7568 45.9924 26.5C45.5333 27.2846 44.8802 28.3018 44.0146 29.4302Z" fill="url(#paint6_linear_566_980)"/>
<path d="M16.8194 17.6144C17.3735 17.7458 17.8488 18.0714 18.1723 18.5163C18.9124 18.4758 19.6445 18.4556 20.3623 18.4556C22.8537 18.4556 25.2157 18.6943 27.4361 19.1755C27.4806 19.1857 27.5251 19.1978 27.5696 19.2059C27.9963 18.6275 28.6797 18.2514 29.4522 18.2514C29.6787 18.2514 29.8991 18.2858 30.1054 18.3464C32.2853 15.574 34.6554 13.485 37.1872 12.1079C31.0821 8.42541 23.3087 8.6337 17.4039 12.6802C17.0965 14.3849 16.9064 16.033 16.8174 17.6164L16.8194 17.6144Z" fill="url(#paint7_linear_566_980)"/>
<path d="M14.1511 18.916C14.3897 18.3983 14.8104 17.9818 15.3321 17.7512C15.3968 16.5096 15.5222 15.2578 15.7021 14C15.324 14.3316 14.956 14.6795 14.6 15.0455C13.324 16.3599 12.2866 17.818 11.4858 19.365C12.3878 19.189 13.2755 19.0394 14.1531 18.914L14.1511 18.916Z" fill="url(#paint8_linear_566_980)"/>
<path d="M19.9162 41.4191C19.4935 41.1238 19.174 40.6951 19.0183 40.1916C17.2165 40.0136 15.3682 39.688 13.4814 39.2148C13.9486 39.7932 14.4562 40.3513 15.0062 40.8832C16.3166 42.1511 17.7706 43.1845 19.3115 43.9832C19.4794 43.2249 19.6816 42.3634 19.9182 41.4191H19.9162Z" fill="url(#paint9_linear_566_980)"/>
<path d="M75.1504 0.152344H81.2029V1.74787H76.8996V4.87422H80.8632V6.36056H76.8996V11.1451H75.1504V0.152344Z" fill="#F2F2F2"/>
<path d="M90.1538 0.152344L94.4571 11.1451H92.5683L91.717 8.90047H86.7929L85.9415 11.1451H84.0527L88.3419 0.152344H90.1538ZM91.1144 7.27461L89.2559 2.36667L87.3975 7.27461H91.1123H91.1144Z" fill="#F2F2F2"/>
<path d="M97.5552 5.65009C97.5552 2.25882 100.109 0 103.191 0C104.615 0 106.396 0.479266 107.557 2.275L106.287 3.17287C105.482 2.05862 104.305 1.67036 103.238 1.67036C101.086 1.67036 99.3509 3.23353 99.3509 5.65009C99.3509 8.06664 101.1 9.62982 103.252 9.62982C104.336 9.62982 105.48 9.24357 106.287 8.12731L107.557 9.02517C106.396 10.8209 104.615 11.3002 103.191 11.3002C100.109 11.3002 97.5552 9.03933 97.5552 5.65009Z" fill="#F2F2F2"/>
<path d="M112.045 7.11889V0.152344H113.795V7.11889C113.795 8.96114 114.909 9.64263 116.086 9.64263C117.263 9.64263 118.393 8.96114 118.393 7.11889V0.152344H120.142V7.11889C120.142 9.82867 118.363 11.2988 116.086 11.2988C113.809 11.2988 112.045 9.82867 112.045 7.11889Z" fill="#F2F2F2"/>
<path d="M124.942 0.152344H126.692V9.51927H131.227V11.1451H124.942V0.152344Z" fill="#F2F2F2"/>
<path d="M135.704 0.152344H139.358C142.484 0.152344 144.715 2.39701 144.715 5.64874C144.715 8.90047 142.486 11.1451 139.358 11.1451H135.704V0.152344ZM139.295 9.48692C141.633 9.48692 142.903 7.93789 142.903 5.64671C142.903 3.35554 141.633 1.80652 139.295 1.80652H137.453V9.48489H139.295V9.48692Z" fill="#F2F2F2"/>
<path d="M153.662 0.152344L157.965 11.1451H156.076L155.225 8.90047H150.301L149.449 11.1451H147.561L151.85 0.152344H153.662ZM154.622 7.27461L152.764 2.36667L150.905 7.27461H154.62H154.622Z" fill="#F2F2F2"/>
<path d="M162.148 0.152344H165.802C168.928 0.152344 171.159 2.39701 171.159 5.64874C171.159 8.90047 168.93 11.1451 165.802 11.1451H162.148V0.152344ZM165.739 9.48692C168.077 9.48692 169.347 7.93789 169.347 5.64671C169.347 3.35554 168.077 1.80652 165.739 1.80652H163.897V9.48489H165.739V9.48692Z" fill="#F2F2F2"/>
<path d="M175.635 0.152344H181.703V1.7782H177.384V4.82772H181.038V6.40707H177.384V9.51927H181.843V11.1451H175.635V0.152344Z" fill="#F2F2F2"/>
<path d="M111.935 24.2285C107.961 24.6369 107.603 24.9423 107.603 29.1708V48.6872C107.603 52.9157 108.012 53.2231 111.935 53.579V55.4637H96.19V53.579C100.216 53.0694 100.522 52.9157 100.522 48.6872V39.108H86.7645V48.6872C86.7645 52.9157 87.2235 53.1705 91.0455 53.579V55.4637H75.3511V53.579C79.1225 53.1705 79.6827 52.9157 79.6827 48.6872V29.1708C79.6827 24.9423 79.2236 24.5338 75.3511 24.2285V22.3438H91.0455V24.2285C87.173 24.5844 86.7645 24.9423 86.7645 29.1708V36.4568H100.522V29.1708C100.522 24.9423 100.012 24.6349 96.19 24.2285V22.3438H111.935V24.2285Z" fill="#F2F2F2"/>
<path d="M150.61 24.2264C147.348 24.5318 146.483 25.5004 146.279 27.3346C146.125 28.8634 146.024 30.5964 146.024 34.1636V40.839C146.024 45.2211 145.31 49.6538 142.406 52.7114C140.062 55.1563 136.444 56.2281 132.827 56.2281C129.464 56.2281 126.101 55.5142 123.706 53.579C120.75 51.3363 119.324 48.2282 119.324 42.5215V29.6298C119.324 24.9423 118.865 24.5844 114.993 24.2285V22.3438H130.738V24.2285C126.916 24.5844 126.457 24.9423 126.457 29.6298V43.1848C126.457 48.8915 129.259 52.6629 134.711 52.6629C140.776 52.6629 143.425 48.1796 143.425 40.5356V34.1657C143.425 30.649 143.271 28.8149 143.17 27.2861C142.966 24.9423 141.54 24.4327 137.973 24.2285V22.3438H150.61V24.2285V24.2264Z" fill="#F2F2F2"/>
<path d="M172.88 37.2212C178.231 38.1899 182 40.7379 182 45.577C182 48.7358 180.012 51.6922 177.108 53.3222C174.51 54.7478 171.197 55.4617 167.426 55.4617H153.159V53.577C157.082 53.1685 157.491 52.9137 157.491 48.6346V29.2213C157.491 24.9403 156.827 24.4833 153.21 24.2285V22.3438H168.7C172.573 22.3438 175.019 22.8533 177.056 24.1273C178.941 25.3508 180.164 27.2861 180.164 29.7835C180.164 34.012 176.19 36.56 172.878 37.2233L172.88 37.2212ZM166.409 36.5579C171.25 36.5579 173.034 34.469 173.034 30.6976C173.034 26.2648 170.13 24.5823 167.327 24.5823C166.103 24.5823 165.339 24.736 164.933 24.9908C164.372 25.3467 164.423 25.8058 164.423 26.8755V36.5579H166.411H166.409ZM164.421 48.5315C164.421 52.1998 166.103 53.3222 168.854 53.2696C171.656 53.219 174.409 50.7721 174.409 46.0341C174.409 41.296 171.911 38.748 166.205 38.748H164.421V48.5315Z" fill="#F2F2F2"/>
<defs>
<linearGradient id="paint0_linear_566_980" x1="16.8281" y1="28.5557" x2="27.5823" y2="28.5557" gradientUnits="userSpaceOnUse">
<stop stop-color="#1A1A1A"/>
<stop offset="1" stop-color="#333333"/>
</linearGradient>
<linearGradient id="paint1_linear_566_980" x1="20.6753" y1="43.7829" x2="25.4821" y2="43.7829" gradientUnits="userSpaceOnUse">
<stop stop-color="#1A1A1A"/>
<stop offset="1" stop-color="#333333"/>
</linearGradient>
<linearGradient id="paint2_linear_566_980" x1="22.5161" y1="30.3989" x2="40.4754" y2="30.3989" gradientUnits="userSpaceOnUse">
<stop stop-color="#1A1A1A"/>
<stop offset="1" stop-color="#333333"/>
</linearGradient>
<linearGradient id="paint3_linear_566_980" x1="31.3257" y1="20.677" x2="45.7259" y2="20.677" gradientUnits="userSpaceOnUse">
<stop stop-color="#1A1A1A"/>
<stop offset="1" stop-color="#333333"/>
</linearGradient>
<linearGradient id="paint4_linear_566_980" x1="9.44468" y1="29.5784" x2="19.7196" y2="29.5784" gradientUnits="userSpaceOnUse">
<stop stop-color="#1A1A1A"/>
<stop offset="1" stop-color="#333333"/>
</linearGradient>
<linearGradient id="paint5_linear_566_980" x1="23.2467" y1="39.1869" x2="44.4416" y2="39.1869" gradientUnits="userSpaceOnUse">
<stop stop-color="#1A1A1A"/>
<stop offset="1" stop-color="#333333"/>
</linearGradient>
<linearGradient id="paint6_linear_566_980" x1="44.0146" y1="29.8589" x2="46.0349" y2="29.8589" gradientUnits="userSpaceOnUse">
<stop stop-color="#1A1A1A"/>
<stop offset="1" stop-color="#333333"/>
</linearGradient>
<linearGradient id="paint7_linear_566_980" x1="16.8194" y1="14.3465" x2="37.1892" y2="14.3465" gradientUnits="userSpaceOnUse">
<stop stop-color="#1A1A1A"/>
<stop offset="1" stop-color="#333333"/>
</linearGradient>
<linearGradient id="paint8_linear_566_980" x1="11.4858" y1="16.6835" x2="15.7021" y2="16.6835" gradientUnits="userSpaceOnUse">
<stop stop-color="#1A1A1A"/>
<stop offset="1" stop-color="#333333"/>
</linearGradient>
<linearGradient id="paint9_linear_566_980" x1="13.4814" y1="41.597" x2="19.9162" y2="41.597" gradientUnits="userSpaceOnUse">
<stop stop-color="#1A1A1A"/>
<stop offset="1" stop-color="#333333"/>
</linearGradient>
</defs>
</svg>
